<mxfile host="app.diagrams.net" modified="2023-07-18T01:50:26.887Z" agent="Mozilla/5.0 (Windows NT 10.0; Win64; x64) AppleWebKit/537.36 (KHTML, like Gecko) Chrome/113.0.0.0 Safari/537.36" version="21.6.2" etag="e6-EWooSxwexGtAGmR4b" type="github">
  <diagram name="第 1 页" id="8-R-j_93MrFWnBZphff4">
    <mxGraphModel>
      <root>
        <mxCell id="0" />
        <mxCell id="1" parent="0" />
      </root>
    </mxGraphModel>
  </diagram>
</mxfile>
